HIERARCHY
ROOT Spine
{
    OFFSET 0.0 0.0 -0.0
    CHANNELS 6 Xposition Yposition Zposition Zrotation Xrotation Yrotation
    JOINT ShoulderCenter
    {
        OFFSET 0.0 30.673179626464844 0.0
        CHANNELS 3 Zrotation Xrotation Yrotation
        JOINT LeftShoulder
        {
            OFFSET 18.621719360351562 0.0 0.0
            CHANNELS 3 Zrotation Xrotation Yrotation
            JOINT LeftElbow
            {
                OFFSET 24.321170806884766 0.0 0.0
                CHANNELS 3 Zrotation Xrotation Yrotation
                JOINT LeftHand
                {
                    OFFSET 29.604454040527344 0.0 0.0
                    CHANNELS 3 Zrotation Xrotation Yrotation
                    End Site
                    {
                        OFFSET 11.841781616210938 0.0 0.0
                    }
                }
            }
        }
        JOINT RightShoulder
        {
            OFFSET -18.621719360351562 0.0 0.0
            CHANNELS 3 Zrotation Xrotation Yrotation
            JOINT RightElbow
            {
                OFFSET -24.321170806884766 0.0 0.0
                CHANNELS 3 Zrotation Xrotation Yrotation
                JOINT RightHand
                {
                    OFFSET -29.604454040527344 0.0 0.0
                    CHANNELS 3 Zrotation Xrotation Yrotation
                    End Site
                    {
                        OFFSET -11.841781616210938 0.0 0.0
                    }
                }
            }
        }
        End Site
        {
            OFFSET 0.0 12.269272804260254 0.0
        }
    }
    JOINT LeftHip
    {
        OFFSET 19.665623757543337 -19.665623757543337 0.0
        CHANNELS 3 Zrotation Xrotation Yrotation
        JOINT LeftKnee
        {
            OFFSET 0.0 -35.15263366699219 0.0
            CHANNELS 3 Zrotation Xrotation Yrotation
            JOINT LeftFoot
            {
                OFFSET 0.0 -36.91033935546875 0.0
                CHANNELS 3 Zrotation Xrotation Yrotation
                End Site
                {
                    OFFSET 0.0 0.0 14.764137268066406
                }
            }
        }
    }
    JOINT RightHip
    {
        OFFSET -19.665623757543337 -19.665623757543337 0.0
        CHANNELS 3 Zrotation Xrotation Yrotation
        JOINT RightKnee
        {
            OFFSET 0.0 -35.15263366699219 0.0
            CHANNELS 3 Zrotation Xrotation Yrotation
            JOINT RightFoot
            {
                OFFSET 0.0 -36.91033935546875 0.0
                CHANNELS 3 Zrotation Xrotation Yrotation
                End Site
                {
                    OFFSET 0.0 0.0 14.764137268066406
                }
            }
        }
    }
}
MOTION
Frames: 10
Frame Time: 0.03333333333333333
-71.10000610351562 0.8999999761581421 19.600000381469727 -3.3664665264135154 -3.174355443638668 -92.57644302805629 -4.6871720648729175e-08 3.9343906733866057e-07 6.2003853660817985 110.78102956353666 30.13599224004367 158.83479571938165 2.9206078649387744e-06 -1.1605063993052427e-06 32.99459686310912 0.0 0.0 -6.3611093629270335e-15 -105.00255886228268 -17.004773651759542 -164.634932296058 -6.455516004903573e-07 1.4874417184014986e-06 -54.108514900018555 7.95138670365879e-15 0.0 0.0 -11.03815265965859 -15.781529676605187 7.788414348816109 -0.654392368304241 0.3605600006784413 -0.35085836579840574 -1.1034765745125397e-32 -1.5902773407317588e-15 -7.951386703658794e-16 9.840940577340504 28.02185168635735 23.378885976819866 -2.948902108774456 -20.92863656054936 -11.533246750776227 1.5902773407317584e-15 -9.379550883356588e-32 -6.7586786981099735e-15
-69.70000457763672 0.800000011920929 19.100000381469727 -3.5646567312743977 -2.997129183713627 -94.49198694128413 -1.0557083057619466e-07 4.203565842004002e-07 6.258720776602075 109.64354113587036 27.354687628106884 160.6034709815195 1.3694853507035203e-06 2.6833584419521437e-06 35.678487548999726 -3.1805546814635164e-15 0.0 0.0 -104.6517568100004 -16.880699406810912 -163.10973001562763 -1.1726494969418614e-06 3.587219256719707e-06 -48.620937823733236 9.541664044390549e-15 0.0 0.0 -9.453841291304 -16.20575979719414 9.38456950789647 -0.9057125492023075 -0.4550559513264388 0.46963894185956423 5.793252016190833e-32 1.5902773407317588e-15 -4.174478019420867e-15 9.744478160369695 27.716510102674814 22.892734348197664 -1.7569646852620213 -22.246848205552066 -11.62437446458249 -2.758691436281349e-32 -1.5902773407317584e-15 -1.987846675914698e-15
-68.4000015258789 0.800000011920929 18.700000762939453 -3.5646418486470033 -2.997128950678256 -95.92979673759689 3.322922318991064e-07 1.551618991306915e-08 5.823040398212009 108.02091065223021 25.104361053667176 162.24111019238973 1.9153249588516063e-06 6.72429300484961e-07 39.753802370883975 -3.531125038440127e-31 6.3611093629270335e-15 6.3611093629270335e-15 -104.34253254433553 -15.073348836470593 -163.6235304624058 5.925604990845648e-07 -1.0628735502977727e-06 -42.799823733663686 3.1805546814635168e-15 -8.827812596100317e-32 -3.1805546814635168e-15 -8.361690903515887 -16.18017224226009 10.052731802108658 -1.6152323250478657 -1.4589450124881198 1.5532442925718501 0.0 0.0 -6.3611093629270335e-15 9.72803858402877 27.289511792550734 22.395287424349924 -1.2826894027596865 -23.284465141059254 -11.719725720844838 5.517382872562698e-33 1.5902773407317584e-15 -3.975693351829396e-16
-67.29999542236328 0.800000011920929 18.399999618530273 -3.7394888366154024 -3.173075209735779 -97.23291539720202 6.305469441060496e-08 -3.5148469199846777e-07 5.246860816578009 106.53299765013664 21.089048382864668 163.76792651619763 1.4223001677219808e-06 -1.9421647730716347e-06 42.55588482799362 -6.3611093629270335e-15 0.0 0.0 -104.78267672791958 -13.324844326665737 -165.15751827049047 6.090701955237795e-06 4.3461382898299107e-07 -37.72966099812982 0.0 0.0 -3.1805546814635164e-15 -7.743839394730772 -15.232437170136981 9.377722974915102 -2.937151080402149 -3.11497973898462 3.288474250115683 3.1805546814635164e-15 8.276074308844047e-32 2.9817700138720468e-15 9.294806052278386 26.84915810366559 22.268525743877518 -0.8193323956215115 -24.026747606884562 -11.943002705835758 -1.5902773407317584e-15 -9.931289170612858e-32 7.156248033292914e-15
-66.29999542236328 0.800000011920929 18.0 -4.12565955662906 -2.9951606699028925 -98.8233423437263 4.523356294071059e-07 2.4513942117520183e-07 5.60163798589074 105.23822595373352 18.55791517763195 164.9450708805849 3.3918292266040457e-06 1.6561190665333127e-07 44.319018504625724 4.770832022195274e-15 0.0 0.0 -104.91566443583697 -10.825198969907163 -166.2470581219407 -6.621502335259671e-09 2.2493505850064343e-06 -34.56449959843194 0.0 0.0 0.0 -6.930392358668948 -13.316295094632045 7.72528157736661 -4.655914541134302 -5.141080505200253 5.27737840578136 0.0 0.0 8.5477407064332e-15 9.27373225350787 26.34936484511073 21.967409077559203 -0.6105424306831311 -24.082095626175843 -12.05483350035369 0.0 0.0 6.758678698109972e-15
-65.30000305175781 0.800000011920929 17.80000114440918 -4.49925207582116 -3.180425352861097 -100.09523512519416 -6.834710724190165e-07 -1.7042433048499216e-07 5.765250445524398 103.80794423915879 16.670452863624018 165.78881485490493 -3.390600062330945e-06 1.4124159469339619e-06 45.06072054611257 0.0 -6.361109362927035e-15 0.0 -105.65938410499653 -10.120095737012756 -167.2112228911878 -1.06038100326179e-06 2.5458353389608804e-06 -33.50332467568949 0.0 0.0 0.0 -6.29113395150991 -11.458079359935468 5.622880668108383 -6.995060047055719 -6.164758621813771 6.080809592451542 -3.1805546814635168e-15 -3.1805546814635168e-15 4.174478019420866e-15 8.718862016306144 25.509600274454524 21.697499479161827 -0.45576609777347876 -23.975468279525174 -12.062019392058128 -1.5902773407317584e-15 -8.276074308844047e-33 5.963540027744094e-16
-64.4000015258789 0.800000011920929 17.5 -5.058906886602734 -3.1778305249038454 -101.21127679132616 2.851019342308536e-07 1.636487489278545e-07 5.964271443867591 102.94712685255836 14.639710250355925 165.45963383406098 8.512030133056824e-06 -2.649960362902727e-06 45.242036241952846 0.0 0.0 0.0 -105.88651613763729 -10.094288454839756 -167.69189595084114 -9.412841214213873e-07 2.9044556531328125e-06 -33.968003186439994 1.7655625192200634e-31 -3.180554681463516e-15 6.361109362927032e-15 -5.626481319954366 -9.345403002500266 3.1505114498279383 -9.293775226634741 -6.489128882750577 6.09437231371653 -3.1805546814635168e-15 8.000205165215913e-32 -2.882377680076312e-15 8.419901060013528 25.210596651324835 21.719281352409514 -0.6661330631956653 -24.005940994863867 -12.330119114500658 0.0 0.0 -3.975693351829396e-16
-63.400001525878906 0.7000000476837158 17.200000762939453 -5.228190701013932 -3.166629558280598 -102.37969523374936 2.578140821708093e-07 -1.4058939775337445e-07 6.200823183191926 102.34016890953905 14.192972324036516 165.45597423252192 1.0716836698692375e-06 -2.9531638167445127e-06 43.31498866229129 0.0 0.0 6.361109362927033e-15 -106.05144577920994 -10.657926315225671 -168.7444743636328 -3.5705424909006016e-06 -3.1122991105043948e-06 -34.724265930943744 -3.1805546814635168e-15 3.1805546814635168e-15 8.827812596100317e-32 -4.855651215418583 -8.105869779018505 1.16152426715942 -10.270104799754025 -6.169023815912287 5.797873276048107 -1.5902773407317584e-15 2.4138550067461804e-32 -1.7393658414253607e-15 8.238398141938577 24.448068894726322 21.76397169617276 -0.18409113260282578 -23.869266138678693 -12.149560622383547 7.951386703658792e-16 3.862168010793889e-32 5.565970692561154e-15
-62.5 0.5 16.899999618530273 -5.211254324616566 -3.3416820811913097 -103.1835008882941 2.313873122478906e-07 -4.6622960039627017e-07 6.508808236538987 102.10048404496736 14.368045387661091 165.40520744099058 3.0418163967509087e-06 -6.132918684896482e-06 40.69378158667516 0.0 6.3611093629270335e-15 0.0 -106.27653528620431 -11.264341036822819 -169.62831202340308 6.129209030562421e-07 -1.0033377043406228e-06 -35.06525463314846 0.0 0.0 0.0 -4.336792572391772 -7.769518745242452 0.052209522110229944 -11.282122532123692 -4.658545125651092 4.298627518419777 0.0 0.0 2.708441095933776e-15 8.285158552575902 24.060203667103927 21.81320961748841 -0.44888952234242047 -24.422689362596206 -12.342508256145626 7.951386703658792e-16 7.951386703658792e-16 1.987846675914698e-15
-61.69999694824219 0.4000000059604645 16.599998474121094 -5.026112337432906 -3.3426438721538942 -103.38680700658239 1.3028133112399454e-07 2.3057909043789345e-07 6.726945155977752 102.21719213143713 16.721469016592376 165.45624002598558 -2.8334745432511132e-06 -3.026477899359687e-06 37.114044555882096 0.0 0.0 0.0 -106.17812921642738 -11.719408290909517 -170.28514198847202 2.1785052446703933e-07 -4.400031898185858e-06 -34.881514636150754 -6.361109362927035e-15 3.1805546814635176e-15 1.7655625192200634e-31 -4.126876175271957 -10.025642686365346 2.800366330826078 -10.770716824864156 -4.815020125410329 4.534056544081758 1.5902773407317582e-15 1.020715831424099e-31 7.35503270088438e-15 8.330858345432155 23.255124862100182 21.695166306413988 -0.346303893291318 -24.572220611595682 -12.436856772323559 1.5902773407317588e-15 1.1586504032381667e-31 8.348956038841733e-15
